<?xml version="1.0" standalone="no"?>
<!DOCTYPE svg PUBLIC "-//W3C//DTD SVG 20010904//EN"
 "http://www.w3.org/TR/2001/REC-SVG-20010904/DTD/svg10.dtd">
<svg version="1.0" xmlns="http://www.w3.org/2000/svg"
 width="512.000000pt" height="512.000000pt" viewBox="0 0 512.000000 512.000000"
 preserveAspectRatio="xMidYMid meet">

<g transform="translate(0.000000,512.000000) scale(0.100000,-0.100000)"
fill="#ffffff" stroke="none">
<path d="M3436 5103 c-4 -4 -44 -6 -90 -4 -66 2 -86 -1 -99 -14 -19 -18 -23
-45 -7 -45 6 0 10 -16 10 -35 0 -31 -3 -35 -26 -35 -21 0 -25 -4 -21 -20 3
-11 1 -20 -3 -20 -20 0 -40 13 -40 27 0 11 -12 13 -59 10 -72 -6 -112 -25
-307 -144 -87 -53 -241 -192 -293 -263 -22 -30 -55 -66 -75 -79 -19 -13 -56
-47 -80 -76 -40 -46 -48 -64 -66 -144 -11 -50 -20 -104 -20 -119 0 -16 -20
-66 -45 -113 -76 -141 -96 -191 -111 -273 -20 -111 -33 -156 -56 -195 -20 -36
-19 -96 3 -103 6 -2 -5 -13 -26 -23 -20 -11 -60 -42 -88 -69 -29 -26 -70 -59
-92 -73 -103 -65 -121 -108 -84 -197 l22 -55 -31 -154 c-34 -165 -39 -249 -20
-325 9 -39 26 -62 92 -128 101 -101 203 -169 424 -285 53 -28 61 -38 56 -72
-2 -18 0 -27 4 -21 4 6 36 19 71 30 45 13 66 25 74 41 6 13 43 48 83 78 40 30
95 74 121 97 27 24 70 54 96 68 39 21 50 23 67 12 11 -6 25 -12 32 -12 22 0
58 -64 58 -101 0 -19 -5 -61 -10 -94 -6 -33 -15 -105 -20 -160 -5 -55 -13
-121 -18 -146 -12 -63 0 -93 33 -85 14 4 25 2 25 -4 0 -22 2 -25 23 -37 12 -6
26 -9 32 -6 5 4 7 3 3 -2 -9 -9 39 -48 63 -52 10 -2 43 -19 74 -39 85 -54 251
-132 330 -154 38 -11 98 -20 132 -20 59 0 83 -13 48 -26 -8 -4 -13 -10 -10
-14 5 -8 -24 -25 -37 -22 -5 1 -7 -3 -5 -10 1 -7 -8 -17 -20 -23 -13 -5 -23
-13 -23 -18 0 -4 -12 -12 -26 -17 -17 -7 -24 -15 -20 -25 3 -8 1 -17 -4 -20
-6 -4 -10 0 -10 7 0 7 -7 2 -16 -10 -8 -12 -22 -22 -30 -22 -8 0 -14 -4 -14
-10 0 -5 -7 -7 -15 -4 -8 3 -25 -5 -38 -20 -13 -14 -29 -26 -36 -26 -6 0 -11
-5 -11 -11 0 -6 -9 -8 -20 -4 -13 4 -21 2 -21 -7 -1 -7 -3 -20 -4 -28 -1 -8
-3 -20 -4 -27 -1 -15 -61 -14 -61 1 0 6 -6 0 -13 -14 -8 -14 -19 -24 -26 -22
-7 1 -20 -3 -28 -10 -9 -7 -26 -11 -39 -10 -20 3 -25 -2 -30 -27 -7 -33 -14
-37 -30 -21 -6 6 -17 5 -32 -6 -26 -18 -29 -34 -4 -34 14 0 15 -2 2 -10 -8 -5
-23 -10 -32 -10 -9 0 -46 -20 -81 -44 -46 -30 -80 -45 -116 -50 -28 -4 -54
-12 -58 -19 -15 -24 -109 -65 -127 -55 -19 11 -36 3 -36 -17 0 -9 -13 -12 -50
-11 -28 2 -50 -1 -50 -7 0 -5 -6 -4 -14 2 -12 10 -20 9 -41 -5 -23 -15 -27
-15 -43 -1 -9 9 -20 16 -25 16 -31 -1 -70 17 -83 37 -9 13 -23 24 -31 24 -8 0
-13 8 -12 17 6 40 -11 88 -36 100 -14 6 -25 7 -25 2 0 -12 -37 -11 -61 1 -13
8 -19 7 -19 0 0 -14 -34 19 -49 48 -7 12 -16 20 -22 16 -5 -3 -17 0 -26 8 -12
9 -15 9 -9 1 5 -9 2 -11 -8 -7 -9 3 -16 13 -16 21 0 17 -49 79 -60 76 -4 -1
-13 10 -21 25 -7 15 -22 41 -34 57 -29 44 -53 117 -45 140 4 11 5 26 3 33 -6
15 4 15 23 0 47 -40 70 -66 79 -93 6 -16 17 -30 25 -30 8 0 18 -5 23 -12 9
-14 65 -43 84 -43 7 0 13 -5 13 -11 0 -5 5 -7 10 -4 6 3 10 -4 10 -15 0 -13 8
-24 20 -27 11 -3 20 -9 20 -14 0 -5 5 -9 11 -9 11 0 54 -36 97 -82 14 -16 29
-28 34 -28 5 0 18 16 30 36 20 35 23 36 62 29 23 -4 47 -7 54 -8 6 0 12 -4 12
-9 0 -4 16 -8 35 -8 19 0 35 -5 35 -10 0 -7 6 -7 19 0 13 7 20 7 23 -1 7 -22
38 4 38 32 0 26 3 28 18 20 10 -5 24 -6 32 -1 7 4 19 6 26 3 8 -3 21 8 31 26
10 17 23 31 28 31 6 0 15 8 22 18 7 12 34 24 73 32 57 12 63 12 89 -8 29 -21
74 -23 94 -3 8 8 6 20 -6 46 -9 20 -17 43 -17 52 0 10 -6 14 -18 11 -10 -3
-24 1 -31 9 -7 8 -19 12 -27 9 -9 -3 -11 0 -7 12 6 14 4 15 -9 4 -13 -10 -17
-10 -22 3 -7 18 -37 20 -54 3 -9 -9 -12 -5 -12 20 0 18 -4 32 -9 32 -13 0 -20
-34 -15 -72 4 -28 1 -35 -23 -45 -44 -21 -108 -16 -166 13 -28 15 -80 33 -114
40 -35 7 -73 22 -85 34 -13 12 -50 39 -83 61 -108 71 -154 111 -151 132 1 7
14 29 30 48 15 19 25 27 21 19 -7 -12 -5 -13 5 -3 12 11 11 15 -6 28 -10 8
-29 15 -41 15 -16 0 -24 8 -29 28 -11 52 -12 53 -54 50 -21 -2 -40 2 -41 7 -5
20 -28 35 -54 35 -20 0 -26 -4 -21 -15 5 -13 2 -13 -19 1 -24 16 -25 15 -25
-4 0 -11 -11 -29 -25 -40 -28 -22 -33 -57 -9 -66 8 -3 12 -11 8 -17 -4 -7 -1
-10 7 -7 8 3 21 -3 29 -12 20 -22 59 -31 82 -19 16 9 25 4 54 -26 21 -22 34
-47 34 -62 0 -15 3 -23 7 -20 7 7 32 -22 33 -37 0 -6 -6 -1 -14 9 -13 18 -14
18 -20 -3 -4 -12 -19 -25 -32 -28 -17 -4 -27 -15 -30 -34 -6 -26 -8 -27 -41
-20 -19 5 -43 16 -54 26 -11 10 -19 12 -19 6 0 -24 -22 -11 -35 22 -8 19 -22
42 -31 51 -9 9 -17 30 -18 46 -1 16 -4 29 -8 29 -5 0 -8 7 -8 15 0 8 -4 15 -8
15 -4 0 -7 19 -5 42 1 28 -3 49 -14 60 -15 16 -20 52 -23 154 0 7 -9 14 -21
17 -17 5 -19 9 -10 26 15 28 14 63 -5 89 -12 17 -12 22 -2 22 9 0 9 3 2 8 -14
9 -26 72 -14 72 5 0 12 -4 15 -10 3 -5 11 -10 17 -10 7 0 6 5 -2 15 -6 8 -10
20 -8 27 3 7 -2 19 -11 25 -12 10 -13 15 -4 21 7 4 15 30 17 56 3 30 1 45 -4
40 -8 -8 -15 -37 -24 -106 -1 -9 -15 -33 -30 -53 l-28 -37 -107 6 c-58 3 -151
8 -206 12 -156 11 -422 8 -469 -6 -22 -6 -68 -20 -101 -31 -105 -32 -178 -51
-255 -65 -78 -14 -188 -35 -277 -54 -29 -6 -65 -17 -80 -25 -15 -8 -33 -15
-39 -15 -5 0 -22 -5 -36 -12 l-26 -12 -4 -191 c-2 -104 -4 -518 -3 -918 l0
-729 2218 -1 c1374 0 2221 3 2227 9 16 16 -5 223 -31 294 -25 68 -37 83 -215
250 -75 70 -141 160 -229 310 -16 28 -70 112 -120 187 -49 74 -99 151 -110
170 -25 41 -71 79 -108 88 -103 26 38 172 290 300 17 9 43 34 58 55 26 37 108
101 172 134 49 25 75 57 68 84 -3 14 0 24 9 28 8 3 17 12 20 19 3 10 0 12 -11
8 -12 -5 -15 -2 -10 13 6 21 86 247 88 252 4 7 7 25 8 53 1 22 7 32 21 36 11
3 17 10 14 15 -3 5 3 12 15 15 12 3 21 13 21 23 0 10 17 39 38 66 21 27 57 82
80 121 24 40 66 98 95 130 66 72 209 258 230 299 15 30 77 123 116 174 49 65
111 185 115 223 3 23 10 74 15 112 15 102 14 251 -3 283 -7 15 -19 52 -26 82
-14 65 -36 135 -51 162 -6 11 -17 45 -25 76 -17 66 -64 172 -76 172 -4 0 -8 6
-8 13 0 33 -155 217 -182 217 -4 0 -36 24 -70 53 -35 29 -78 59 -95 66 -18 7
-33 20 -33 27 0 14 -42 76 -96 142 -32 39 -92 71 -234 124 -58 22 -121 52
-142 68 -20 16 -53 37 -75 46 -21 9 -48 21 -60 27 -11 5 -27 6 -33 2 -7 -4
-15 -3 -19 3 -4 7 -18 13 -31 14 -14 2 -28 6 -31 11 -3 4 -31 16 -62 27 -44
16 -82 20 -175 20 -65 0 -122 -3 -126 -7z m-886 -1129 c0 -8 3 -14 8 -14 4 0
21 -12 37 -28 17 -15 40 -32 50 -38 11 -7 19 -20 18 -31 -2 -15 4 -18 32 -18
19 1 35 -3 35 -8 0 -5 11 -7 24 -5 15 3 27 -2 35 -14 6 -10 14 -17 19 -17 21
4 30 -3 25 -20 -5 -21 26 -38 37 -20 5 7 10 8 14 1 3 -5 22 -8 41 -5 22 3 35
0 35 -7 0 -8 6 -8 20 0 21 11 47 3 50 -15 1 -5 9 -9 17 -7 15 3 15 1 -1 -22
-12 -19 -13 -26 -3 -26 7 0 13 -8 14 -17 2 -28 9 -52 16 -59 4 -4 7 -16 7 -27
0 -11 3 -17 7 -14 3 4 6 21 6 39 -1 18 1 27 4 21 6 -16 33 -17 33 -2 0 7 7 8
18 4 9 -4 24 -8 32 -8 21 0 31 -19 18 -34 -6 -7 -8 -22 -5 -32 6 -22 -15 -19
-47 8 -18 15 -18 15 -11 -9 4 -14 14 -29 22 -33 7 -5 11 -12 8 -18 -4 -5 -2
-9 4 -9 5 0 11 5 13 12 3 7 10 8 17 4 11 -7 11 -10 0 -17 -10 -6 -8 -9 9 -9
12 0 25 -7 28 -15 4 -8 13 -15 21 -15 9 0 13 6 9 15 -5 15 5 19 33 15 8 -1 18
4 23 12 6 9 7 5 3 -12 -6 -24 -6 -24 19 5 14 17 25 24 26 18 0 -7 -5 -13 -11
-13 -5 0 -7 -4 -4 -10 3 -5 -10 -20 -29 -32 -38 -24 -48 -42 -18 -31 33 12 71
46 65 57 -4 6 1 5 10 -3 9 -7 23 -11 31 -8 11 4 16 -5 21 -33 5 -31 2 -46 -15
-72 l-22 -33 26 28 c23 25 29 27 43 16 14 -12 15 -11 8 9 -6 22 -5 23 15 12
13 -7 18 -15 13 -19 -24 -16 -20 -38 9 -55 16 -10 32 -16 35 -13 2 3 -4 10
-15 16 -17 9 -20 23 -13 64 0 4 6 7 12 7 6 0 9 -7 6 -14 -4 -9 -1 -13 7 -10 7
3 18 -7 26 -20 10 -20 19 -24 36 -20 18 5 25 -1 39 -30 10 -20 26 -41 37 -47
18 -10 19 -8 13 11 -5 16 -4 20 5 15 6 -4 10 -18 8 -30 -3 -13 3 -33 13 -46
10 -13 19 -18 19 -11 0 20 37 14 43 -8 5 -20 27 -28 27 -10 0 14 31 12 63 -5
15 -8 34 -12 42 -8 9 3 27 -3 41 -12 15 -9 51 -19 80 -21 29 -2 68 -10 86 -17
28 -11 37 -11 58 1 23 13 30 13 63 -3 33 -16 37 -21 33 -47 -4 -25 0 -31 30
-45 30 -15 51 -45 46 -65 -1 -5 2 -8 6 -8 14 0 1 -64 -15 -76 -7 -7 -17 -29
-20 -50 -3 -22 -16 -52 -29 -69 -12 -16 -26 -43 -30 -60 -4 -16 -11 -35 -16
-42 -5 -7 -7 -16 -4 -22 8 -12 -4 -42 -14 -36 -4 2 -10 -12 -13 -33 -5 -25
-17 -46 -39 -64 -28 -23 -31 -30 -22 -45 9 -15 7 -27 -12 -58 -13 -22 -28 -49
-33 -60 -12 -25 -45 -53 -68 -57 -14 -2 -19 4 -20 27 -2 25 -1 27 7 10 10 -22
13 -6 4 19 -8 20 -34 21 -34 2 0 -19 -20 -32 -29 -19 -3 6 -16 15 -29 22 -17
9 -22 9 -20 0 4 -18 -44 -28 -60 -12 -7 6 -19 10 -27 7 -7 -3 -18 4 -25 16 -6
12 -18 19 -25 16 -7 -2 -16 2 -19 11 -4 8 -13 13 -21 9 -9 -3 -24 8 -40 27
-13 18 -25 26 -25 19 0 -9 -15 -2 -39 17 -31 25 -45 30 -75 26 -20 -3 -36 -1
-36 4 0 5 -12 13 -28 19 -15 5 -45 21 -66 36 -21 14 -49 26 -62 26 -28 0 -94
29 -112 50 -12 13 -13 13 -8 -3 3 -11 2 -16 -4 -12 -6 4 -24 0 -40 -9 -17 -8
-28 -10 -25 -5 8 12 2 11 -32 -3 -15 -6 -37 -12 -48 -12 -17 -1 -20 -8 -19
-43 0 -29 -4 -43 -13 -43 -7 0 -13 -5 -13 -11 0 -5 5 -7 10 -4 6 3 10 1 10 -5
0 -15 -69 -4 -127 21 -97 41 -173 124 -165 178 4 28 12 36 35 32 4 0 7 2 8 7
0 4 2 16 4 27 11 54 9 64 -14 84 -14 12 -35 24 -48 27 -13 4 -23 10 -23 16 0
5 5 6 10 3 6 -3 10 -4 10 -2 0 2 -23 18 -51 36 -28 17 -49 34 -46 38 7 6 -77
63 -93 63 -6 0 -10 6 -10 14 0 8 -12 17 -27 21 -15 3 -33 15 -40 25 -7 10 -33
21 -60 26 -46 7 -47 8 -18 15 l30 7 -27 1 c-16 0 -28 6 -28 11 0 6 -15 10 -32
10 -25 0 -29 3 -18 10 8 5 11 10 5 10 -5 0 -3 5 5 10 11 7 7 10 -17 10 -17 0
-35 5 -38 10 -3 6 -18 10 -33 10 -21 0 -23 3 -12 10 18 11 14 15 -23 24 -19 4
-26 3 -22 -4 14 -22 -13 -8 -38 20 -15 17 -31 30 -35 30 -9 0 -47 -62 -44 -72
1 -5 -3 -8 -8 -8 -6 0 -10 -6 -8 -14 3 -16 -7 -19 -35 -10 -14 4 -17 12 -13
27 3 12 6 25 6 29 0 4 6 5 14 2 9 -4 18 6 26 30 6 20 16 36 21 36 5 0 9 14 9
30 0 17 5 30 10 30 6 0 10 6 10 14 0 7 7 27 15 42 12 24 15 26 16 9 0 -14 3
-12 11 10 21 64 63 153 77 165 4 3 18 26 31 53 14 26 28 47 32 47 12 0 39 60
33 71 -4 5 -1 8 6 7 7 -2 13 2 14 7 0 18 38 95 46 95 4 0 18 21 31 46 23 47
85 107 100 98 4 -3 8 -12 8 -20z m420 -158 c-6 -6 -18 -5 -32 2 -13 6 -17 11
-10 11 7 1 11 5 8 10 -4 5 5 4 18 -2 15 -7 21 -16 16 -21z m25 -37 c5 -5 -2
-9 -18 -9 -15 0 -27 5 -27 11 0 5 -5 7 -12 3 -7 -4 -8 -3 -4 5 8 12 43 6 61
-10z m65 -33 c0 -2 -7 -7 -16 -10 -8 -3 -12 -2 -9 4 6 10 25 14 25 6z m37 -86
c2 -19 -8 -26 -20 -14 -7 7 2 34 12 34 4 0 7 -9 8 -20z m73 10 c0 -5 -5 -10
-11 -10 -5 0 -7 5 -4 10 3 6 8 10 11 10 2 0 4 -4 4 -10z m30 -15 c-7 -9 -15
-13 -17 -11 -6 6 20 36 26 30 2 -2 -2 -10 -9 -19z m72 -43 c-7 -2 -12 -8 -12
-13 0 -6 5 -7 12 -3 7 4 8 3 4 -5 -4 -6 -2 -19 5 -28 27 -32 14 -63 -26 -63
-17 1 -18 2 -5 13 19 15 25 53 9 63 -7 4 -9 3 -6 -3 4 -6 -5 -21 -18 -33 -14
-13 -25 -19 -25 -13 0 6 7 13 15 17 8 3 15 12 15 20 0 10 -6 13 -16 9 -14 -5
-15 -3 -5 15 7 12 18 22 26 22 8 0 15 5 15 11 0 5 5 7 12 3 9 -6 9 -9 0 -12z
m72 -38 c22 -8 20 -21 -4 -27 -15 -4 -20 0 -20 14 0 21 1 22 24 13z m-1345
-340 c-12 -28 -13 -28 -17 -6 -5 32 6 58 19 45 6 -6 6 -19 -2 -39z m2236 -64
c-3 -5 -11 -10 -16 -10 -6 0 -7 5 -4 10 3 6 11 10 16 10 6 0 7 -4 4 -10z
m-2368 -35 l28 -26 -42 22 c-46 22 -52 29 -29 29 8 0 28 -11 43 -25z m278 -66
c30 -17 55 -33 55 -35 0 -5 -85 38 -110 55 -32 22 3 9 55 -20z m-87 -25 c19
-13 21 -18 10 -32 -8 -9 -8 -13 -2 -9 15 8 26 -17 17 -39 -3 -10 4 -25 18 -39
56 -53 76 -90 85 -152 4 -34 12 -53 26 -62 11 -7 17 -8 13 -2 -4 7 4 11 19 11
28 0 31 -17 6 -36 -12 -10 -12 -14 -1 -28 11 -13 17 -14 28 -5 11 10 11 14 1
20 -10 7 -9 9 5 9 9 0 17 -7 17 -15 0 -8 -4 -15 -10 -15 -5 0 -10 -5 -10 -11
0 -5 5 -7 10 -4 6 3 10 2 10 -4 0 -12 83 -52 120 -59 14 -2 54 -5 90 -7 36 -2
76 -6 90 -10 14 -3 45 -2 68 3 42 10 42 10 42 -20 0 -93 -173 -278 -302 -324
-22 -8 -67 -15 -99 -15 -52 -1 -71 4 -162 49 -139 70 -289 193 -342 281 -6 10
-4 13 6 9 11 -4 14 6 15 41 3 70 50 219 107 340 12 24 12 24 22 -11 11 -39 35
-41 35 -2 0 13 5 24 11 24 7 0 8 18 4 54 -10 77 5 94 53 60z m220 -240 c29 4
32 2 42 -32 5 -20 21 -50 36 -65 24 -26 32 -29 88 -27 78 3 85 2 63 -11 -13
-8 -17 -18 -13 -35 5 -20 3 -23 -14 -21 -11 2 -26 9 -32 15 -7 7 -21 12 -33
12 -11 0 -29 7 -39 15 -21 16 -52 20 -59 8 -2 -5 -2 -2 -1 5 2 7 -14 30 -35
51 -21 21 -38 44 -38 52 0 8 -4 23 -8 34 -4 13 -4 16 2 8 5 -7 23 -11 41 -9z
m182 6 c0 -5 -4 -10 -10 -10 -5 0 -10 5 -10 10 0 6 5 10 10 10 6 0 10 -4 10
-10z m-253 -52 c-3 -8 -6 -5 -6 6 -1 11 2 17 5 13 3 -3 4 -12 1 -19z m-418
-180 c1 -5 -3 -8 -9 -8 -5 0 -10 12 -9 28 0 24 1 25 9 7 5 -11 9 -23 9 -27z
m1701 -258 c0 -5 -4 -10 -10 -10 -5 0 -10 5 -10 10 0 6 5 10 10 10 6 0 10 -4
10 -10z m-160 -30 c0 -5 -4 -10 -9 -10 -6 0 -13 5 -16 10 -3 6 1 10 9 10 9 0
16 -4 16 -10z m-208 -56 c34 -32 64 -54 72 -51 8 3 22 -3 31 -13 9 -10 30 -22
46 -25 16 -4 29 -10 29 -15 0 -8 53 -36 80 -42 8 -2 14 3 13 10 -4 17 16 15
23 -3 4 -9 19 -15 36 -15 25 0 28 -3 23 -21 -6 -17 -3 -20 12 -17 10 2 17 10
15 16 -1 7 5 12 14 12 8 0 13 -3 10 -8 -2 -4 19 -7 47 -7 29 0 67 -4 85 -8 26
-7 32 -6 32 7 0 9 8 16 19 16 11 0 27 3 37 7 12 4 15 3 10 -5 -5 -8 -2 -10 9
-6 18 7 123 -58 132 -81 6 -18 -10 -44 -66 -109 -23 -26 -41 -56 -41 -67 0
-10 -6 -19 -12 -19 -9 0 -8 -4 2 -10 8 -5 10 -10 4 -10 -6 0 -19 -18 -30 -40
-10 -22 -24 -40 -29 -40 -6 0 -16 -14 -24 -31 -8 -19 -18 -28 -27 -25 -9 3
-14 -2 -14 -14 0 -11 -3 -20 -7 -20 -5 0 -23 -14 -42 -30 l-34 -30 32 0 c18 0
46 7 64 16 l32 15 -25 -21 c-42 -35 -65 -40 -145 -30 -136 17 -368 130 -480
233 -84 77 -107 124 -106 224 1 131 64 309 110 313 2 0 31 -25 63 -56z m88 46
c0 -5 -2 -10 -4 -10 -3 0 -8 5 -11 10 -3 6 -1 10 4 10 6 0 11 -4 11 -10z
m1014 -116 c24 -64 -10 -128 -97 -184 l-28 -18 34 -21 c36 -22 78 -64 47 -46
-8 4 -43 29 -77 54 -60 43 -76 61 -52 61 17 0 69 57 69 75 0 19 69 95 86 95 7
0 15 -7 18 -16z m-268 -65 c5 -8 8 -8 14 0 12 21 39 1 36 -27 -3 -26 -26 -45
-26 -21 0 7 -3 9 -6 6 -8 -8 -64 31 -64 44 0 13 37 11 46 -2z m-72 -214 c-4
-8 -11 -15 -16 -15 -6 0 -5 6 2 15 7 8 14 15 16 15 2 0 1 -7 -2 -15z m-2249
-193 c7 -33 -2 -93 -16 -106 -5 -6 -9 -23 -9 -38 0 -15 -4 -28 -10 -28 -5 0
-10 -8 -10 -17 0 -11 8 -6 25 17 13 18 22 36 20 40 -2 4 2 7 10 7 11 0 15 -12
15 -38 0 -21 6 -39 13 -42 11 -4 36 -126 43 -211 1 -16 8 -33 16 -37 9 -6 9
-9 1 -9 -7 0 -10 -7 -7 -15 4 -8 12 -15 18 -15 8 0 11 -10 8 -29 -2 -17 6 -47
22 -79 14 -28 23 -58 20 -66 -3 -9 -2 -16 4 -16 6 0 15 -14 21 -31 6 -17 15
-28 20 -24 10 6 51 -28 51 -43 0 -4 16 -16 35 -26 19 -11 35 -23 35 -28 0 -4
6 -8 14 -8 8 0 16 -15 20 -37 11 -61 59 -153 76 -147 12 4 13 3 3 -7 -20 -20
-16 -49 6 -49 11 0 23 -5 26 -10 4 -6 11 -7 17 -4 8 5 9 1 4 -11 -6 -16 -4
-16 11 -4 10 8 22 19 26 24 6 6 10 6 14 -2 6 -16 43 -17 43 -2 0 8 5 7 15 -1
13 -11 18 -10 29 5 7 10 18 15 24 11 6 -4 25 0 41 9 27 13 29 18 21 40 -9 24
-8 25 33 26 23 1 46 1 50 0 23 -4 125 21 159 39 21 11 42 19 46 18 9 -2 67 31
101 58 14 12 37 25 51 29 14 4 37 16 52 27 15 11 38 20 50 20 13 1 28 5 33 9
6 4 26 10 45 14 44 9 130 47 130 58 0 5 5 5 10 2 6 -3 10 -2 10 3 0 13 140 93
151 86 5 -3 8 -18 6 -32 -2 -15 0 -40 4 -56 5 -16 5 -34 1 -40 -4 -6 -7 -18
-7 -26 -2 -32 -27 -120 -36 -120 -4 0 -6 -6 -4 -12 3 -7 -5 -24 -18 -38 -12
-14 -31 -42 -41 -63 -9 -21 -23 -40 -30 -43 -7 -3 -19 -20 -26 -39 -7 -19 -17
-32 -21 -30 -7 5 -24 -43 -21 -57 1 -5 -2 -8 -7 -8 -5 0 -19 -26 -32 -57 -39
-101 -110 -183 -247 -287 -62 -47 -117 -64 -189 -60 -12 1 -20 -3 -17 -7 3 -5
-12 -9 -33 -10 -21 0 -49 -2 -63 -4 -63 -10 -120 -11 -120 -3 0 5 -9 4 -20 -2
-11 -6 -20 -7 -20 -1 0 5 -14 6 -34 1 -20 -4 -39 -3 -44 2 -7 7 -15 3 -24 -11
-8 -13 -23 -21 -41 -21 -19 0 -26 4 -21 12 5 7 3 8 -5 3 -7 -4 -23 -3 -34 3
-32 15 -91 37 -99 37 -4 0 -18 9 -30 20 -26 22 -38 31 -94 62 -22 11 -56 35
-78 52 -21 17 -42 28 -47 25 -5 -3 -8 -1 -7 4 2 6 -11 23 -28 39 -79 72 -149
217 -180 373 -2 14 -7 32 -10 40 -8 19 -9 27 -29 190 -25 215 -29 461 -6 458
3 0 13 0 21 1 12 1 11 5 -4 16 -17 13 -18 19 -7 77 27 140 72 278 91 278 5 0
11 -13 15 -28z m151 -279 c-10 -10 -19 5 -10 18 6 11 8 11 12 0 2 -7 1 -15 -2
-18z m435 -73 c20 0 25 -2 44 -20 25 -22 95 -60 112 -60 7 0 13 -4 13 -10 0
-5 7 -7 15 -4 9 4 15 0 15 -10 0 -11 13 -18 40 -22 41 -7 49 -23 17 -36 -21
-9 -57 7 -71 30 -7 13 -11 11 -26 -8 l-17 -23 -6 24 c-8 30 -45 55 -60 40 -7
-7 -2 -12 16 -16 37 -10 24 -33 -16 -30 -28 2 -32 6 -32 32 0 16 -8 37 -17 47
-10 10 -18 26 -18 37 0 10 -6 18 -12 17 -8 -2 -14 9 -15 27 -1 20 0 23 4 8 2
-13 9 -23 14 -23z m254 -200 c9 -15 -3 -30 -20 -24 -7 3 -11 12 -8 20 6 16 19
18 28 4z m552 -147 c-3 -10 -5 -4 -5 12 0 17 2 24 5 18 2 -7 2 -21 0 -30z"/>
<path d="M3100 3548 c0 -8 7 -21 15 -28 19 -16 19 -1 0 24 -12 16 -15 17 -15
4z"/>
<path d="M1976 2785 c-3 -8 -1 -15 4 -15 6 0 10 7 10 15 0 8 -2 15 -4 15 -2 0
-6 -7 -10 -15z"/>
<path d="M2017 2679 c-26 -15 -43 -65 -51 -153 -4 -44 -12 -88 -17 -99 -9 -16
-8 -18 8 -15 13 2 21 19 29 63 13 69 29 118 50 157 19 34 8 61 -19 47z"/>
<path d="M2967 1882 c9 -26 65 -99 87 -112 23 -15 16 -2 -31 56 -18 23 -33 46
-33 51 0 6 -7 13 -14 16 -11 4 -13 1 -9 -11z"/>
<path d="M2955 794 c-20 -32 -13 -41 23 -28 33 12 44 54 14 54 -11 0 -27 -12
-37 -26z"/>
<path d="M2188 573 c6 -2 18 -2 25 0 6 3 1 5 -13 5 -14 0 -19 -2 -12 -5z"/>
<path d="M1710 2359 c0 -5 5 -7 10 -4 6 3 10 8 10 11 0 2 -4 4 -10 4 -5 0 -10
-5 -10 -11z"/>
<path d="M1690 2284 c0 -8 5 -12 10 -9 6 3 10 10 10 16 0 5 -4 9 -10 9 -5 0
-10 -7 -10 -16z"/>
<path d="M4340 2195 c-6 -8 -10 -19 -8 -24 1 -5 11 2 21 15 19 26 8 34 -13 9z"/>
<path d="M2270 1896 c0 -2 8 -10 18 -17 15 -13 16 -12 3 4 -13 16 -21 21 -21
13z"/>
<path d="M2314 1831 c9 -16 16 -35 16 -41 0 -6 7 -18 15 -26 8 -9 15 -24 15
-34 0 -10 12 -26 27 -36 15 -9 35 -25 45 -34 22 -20 124 -53 138 -45 6 3 10
-1 10 -9 0 -9 7 -16 15 -16 14 0 33 -65 22 -76 -13 -13 -27 9 -21 32 5 18 2
24 -11 24 -12 0 -15 -5 -10 -20 8 -26 -14 -68 -26 -49 -6 10 -9 3 -10 -21 -3
-64 -4 -68 -11 -75 -12 -13 2 -25 28 -25 16 0 24 -6 24 -17 1 -17 1 -17 11 0
10 17 12 17 23 1 9 -11 18 -14 27 -8 8 5 21 9 29 9 17 0 16 27 -2 63 -8 16 -9
26 -2 30 18 12 11 52 -8 52 -11 0 -18 7 -18 20 0 11 0 22 0 25 0 3 3 5 8 5 4
0 10 12 14 27 9 32 -3 43 -49 43 -30 0 -64 12 -139 48 -28 13 -61 54 -117 142
-13 19 -31 36 -41 38 -16 4 -16 2 -2 -27z m306 -341 c0 -5 -4 -10 -10 -10 -5
0 -10 5 -10 10 0 6 5 10 10 10 6 0 10 -4 10 -10z m35 1 c3 -5 1 -12 -5 -16 -5
-3 -10 1 -10 9 0 18 6 21 15 7z"/>
<path d="M1895 1800 c3 -5 8 -10 11 -10 2 0 4 5 4 10 0 6 -5 10 -11 10 -5 0
-7 -4 -4 -10z"/>
<path d="M2260 1740 c0 -5 5 -10 10 -10 6 0 10 5 10 10 0 6 -4 10 -10 10 -5 0
-10 -4 -10 -10z"/>
<path d="M2337 1632 c-10 -10 -17 -25 -17 -33 0 -8 10 -2 25 15 14 16 25 31
25 33 0 9 -19 1 -33 -15z"/>
<path d="M2190 1610 c0 -5 7 -10 16 -10 8 0 12 5 9 10 -3 6 -10 10 -16 10 -5
0 -9 -4 -9 -10z"/>
<path d="M2385 1599 c-9 -14 -2 -20 14 -10 8 6 9 11 3 15 -6 3 -14 1 -17 -5z"/>
<path d="M2425 1573 c-11 -3 -24 -11 -28 -19 -4 -8 -13 -14 -20 -14 -10 0 -53
-60 -45 -64 24 -11 68 -23 72 -18 3 3 6 14 6 24 0 10 7 18 16 18 11 0 15 -8
13 -28 -4 -38 8 -55 30 -42 10 5 22 6 26 2 13 -13 35 32 35 72 0 30 -3 37 -10
26 -8 -13 -10 -12 -10 3 0 9 -7 17 -15 17 -9 0 -12 6 -9 15 6 15 -18 18 -61 8z
m13 -41 c2 -7 -6 -12 -17 -12 -21 0 -27 11 -14 24 9 9 26 2 31 -12z"/>
<path d="M2931 1274 c0 -11 3 -14 6 -6 3 7 2 16 -1 19 -3 4 -6 -2 -5 -13z"/>
</g>
</svg>
